<svg xmlns="http://www.w3.org/2000/svg" width="26" height="25" viewBox="0 0 26 25" fill="none">
  <path d="M24.9938 11.8189L13.6188 0.44385C13.2767 0.101725 12.7237 0.101725 12.3816 0.44385L1.00659 11.8189C0.664469 12.161 0.664469 12.714 1.00659 13.0561C1.34872 13.3982 1.90172 13.3982 2.24384 13.0561L13.0002 2.29973L20.0125 9.31198C20.0116 9.33385 20.0002 9.3531 20.0002 9.37498V22.5H6.00022V13.75C6.00022 13.2661 5.60822 12.875 5.12522 12.875C4.64222 12.875 4.25022 13.2661 4.25022 13.75V23.375C4.25022 23.8589 4.64222 24.25 5.12522 24.25H20.8752C21.3591 24.25 21.7502 23.8589 21.7502 23.375V11.0497L23.7566 13.0561C23.9272 13.2267 24.1512 13.3125 24.3752 13.3125C24.5992 13.3125 24.8232 13.2267 24.9938 13.0561C25.336 12.714 25.336 12.161 24.9938 11.8189Z" fill="#00AD11"/>
</svg>