<svg xmlns="http://www.w3.org/2000/svg" width="26" height="26" viewBox="0 0 26 26" fill="none">
  <path d="M24.1148 3.39306H22.8148V2.09306C22.8148 1.76806 22.5548 1.50806 22.2298 1.50806C21.9048 1.50806 21.6448 1.76806 21.6448 2.09306V3.39306H20.3448C20.0198 3.39306 19.7598 3.65306 19.7598 3.97806C19.7598 4.30306 20.0198 4.56306 20.3448 4.56306H21.6448V5.86306C21.6448 6.18806 21.9048 6.44806 22.2298 6.44806C22.5548 6.44806 22.8148 6.18806 22.8148 5.86306V4.55006H24.1148C24.4398 4.55006 24.6998 4.29006 24.6998 3.96506C24.6998 3.64006 24.4398 3.38006 24.1148 3.38006V3.39306Z" fill="#0057FF"/>
  <path d="M18.6938 13C20.5918 11.518 20.9298 8.77499 19.4478 6.87699C18.6418 5.83699 17.4068 5.22599 16.0938 5.19999C15.0278 5.19999 14.0008 5.60299 13.2208 6.33099C11.8428 3.76999 8.6578 2.81449 6.0968 4.19249C3.5358 5.57049 2.5803 8.75549 3.9583 11.31C4.3808 12.09 4.9918 12.7595 5.7393 13.2405C3.1653 13.9945 1.2998 16.1525 1.2998 18.7005V23.9005C1.2998 24.2255 1.5598 24.4855 1.8848 24.4855H15.4568C15.7818 24.4855 16.0418 24.2255 16.0418 23.9005V22.8475H21.5928C21.9178 22.8475 22.1778 22.5875 22.1778 22.2625V17.745C22.1518 15.5805 20.7478 13.676 18.6938 13ZM16.0938 6.33749C17.8553 6.30499 19.3048 7.69599 19.3438 9.45749C19.3763 11.219 17.9853 12.6685 16.2238 12.7075C15.0603 12.7335 13.9748 12.116 13.3963 11.1085L13.4288 11.0175C13.4808 10.907 13.5263 10.7965 13.5718 10.686C13.6173 10.5755 13.6563 10.426 13.6953 10.296C13.7343 10.166 13.7278 10.192 13.7408 10.1335C13.8513 9.71749 13.9098 9.29499 13.9098 8.86599C13.9098 8.58649 13.9098 8.31999 13.8708 8.04699C13.8448 7.87799 13.8123 7.70899 13.7668 7.54649C13.7668 7.54649 13.7668 7.49449 13.7668 7.47499C14.3453 6.75999 15.2098 6.34399 16.1263 6.33749H16.0938ZM12.6163 13.65C12.2783 13.494 11.9338 13.364 11.5763 13.2665C12.0183 12.974 12.4148 12.6165 12.7463 12.2005C12.9998 12.532 13.3053 12.818 13.6498 13.0585C13.2988 13.2145 12.9738 13.4225 12.6813 13.663L12.6163 13.65ZM4.5498 8.86599C4.5433 6.61049 6.3763 4.77749 8.6318 4.77099C10.3803 4.77099 11.9403 5.87599 12.5058 7.53349C12.6618 7.96249 12.7398 8.41099 12.7398 8.86599C12.7333 9.30799 12.6618 9.74999 12.5188 10.166C12.0053 11.687 10.5298 12.948 8.8658 12.948H8.3848C6.2333 12.8115 4.5498 11.024 4.5498 8.86599ZM14.8718 23.3415H2.4698V18.7005C2.4698 17.7515 2.8208 16.8285 3.4188 16.094C4.0493 15.3205 4.9203 14.7615 5.8693 14.4495C6.4478 14.261 7.0588 14.183 7.6633 14.157C8.2873 14.131 8.9308 14.092 9.5548 14.144C9.8798 14.17 10.2048 14.235 10.5233 14.3C10.8613 14.3715 11.1928 14.456 11.5178 14.5535C11.6803 14.599 11.8363 14.6575 11.9988 14.7095C12.4668 14.872 12.8828 15.1125 13.2793 15.4115C13.5263 15.6 13.7083 15.821 13.9228 16.0355C14.0983 16.211 14.2348 16.471 14.3388 16.692C14.5078 17.0365 14.5858 17.4135 14.6703 17.784C14.8133 18.4275 14.8783 19.0775 14.8783 19.7405C14.8783 20.1825 14.8783 20.6245 14.8783 21.0665C14.8783 21.814 14.8783 22.555 14.8783 23.3025C14.8783 23.322 14.8783 23.348 14.8783 23.3675L14.8718 23.3415ZM21.0078 21.6775H16.0418V18.7005C16.0418 18.7005 16.0418 18.6615 16.0418 18.642C16.0418 18.6225 16.0418 18.525 16.0418 18.46C15.9768 17.4395 15.6453 16.4515 15.0863 15.6C15.0538 15.5545 15.0148 15.509 14.9823 15.457C14.8653 15.301 14.7418 15.145 14.6118 15.002L14.5793 14.963C14.3518 14.716 14.0918 14.4885 13.8123 14.3C14.3258 13.9945 14.9108 13.845 15.5088 13.8775H16.9518C19.1358 13.832 20.9493 15.561 21.0078 17.745V21.6775Z" fill="#0057FF"/>
</svg>