<svg xmlns="http://www.w3.org/2000/svg" width="35" height="35" viewBox="0 0 35 35" fill="none">
  <path d="M27.125 29.5313H7.875C6.5625 29.5313 5.46875 28.4375 5.46875 27.125V9.46093C5.46875 8.14843 6.34375 7.05469 7.49219 7.05469H8.69531V8.64062H7.49219C7.32813 8.64062 7.10938 8.96875 7.10938 9.46093V27.125C7.10938 27.5625 7.49219 27.9453 7.92969 27.9453H27.1797C27.6172 27.9453 28 27.5625 28 27.125V9.46093C28 8.96875 27.7266 8.64062 27.6172 8.64062H26.4141V7.05469H27.6172C28.7109 7.05469 29.6406 8.14843 29.6406 9.46093V27.125C29.5313 28.4375 28.4375 29.5313 27.125 29.5313Z" fill="#CDAC00"/>
  <path d="M11.1016 10.2812C10.6641 10.2812 10.2812 9.89843 10.2812 9.46093V6.23438C10.2812 5.79688 10.6641 5.41406 11.1016 5.41406C11.5391 5.41406 11.9219 5.79688 11.9219 6.23438V9.46093C11.8672 9.89843 11.5391 10.2812 11.1016 10.2812Z" fill="#CDAC00"/>
  <path d="M23.8984 10.2812C23.4609 10.2812 23.0781 9.89843 23.0781 9.46093V6.23438C23.0781 5.79688 23.4609 5.41406 23.8984 5.41406C24.3359 5.41406 24.7188 5.79688 24.7188 6.23438V9.46093C24.7188 9.89843 24.3359 10.2812 23.8984 10.2812Z" fill="#CDAC00"/>
  <path d="M13.2432 6.6217H21.2275V8.26233H13.2432V6.6217Z" fill="#CDAC00"/>
  <path d="M7.05469 11.8672H27.9453V13.5078H7.05469V11.8672Z" fill="#CDAC00"/>
  <path d="M24.7188 15.0938H26.3047V16.6797H24.7188V15.0938Z" fill="#CDAC00"/>
  <path d="M21.4922 15.0938H23.1328V16.6797H21.4922V15.0938Z" fill="#CDAC00"/>
  <path d="M18.3203 15.0938H19.9062V16.6797H18.3203V15.0938Z" fill="#CDAC00"/>
  <path d="M15.0938 15.0938H16.6797V16.6797H15.0938V15.0938Z" fill="#CDAC00"/>
  <path d="M11.8672 15.0938H13.5078V16.6797H11.8672V15.0938Z" fill="#CDAC00"/>
  <path d="M24.7188 18.3203H26.3047V19.9062H24.7188V18.3203Z" fill="#CDAC00"/>
  <path d="M21.4922 18.3203H23.1328V19.9062H21.4922V18.3203Z" fill="#CDAC00"/>
  <path d="M18.3203 18.3203H19.9062V19.9062H18.3203V18.3203Z" fill="#CDAC00"/>
  <path d="M15.0938 18.3203H16.6797V19.9062H15.0938V18.3203Z" fill="#CDAC00"/>
  <path d="M11.8672 18.3203H13.5078V19.9062H11.8672V18.3203Z" fill="#CDAC00"/>
  <path d="M8.69531 18.3203H10.2813V19.9062H8.69531V18.3203Z" fill="#CDAC00"/>
  <path d="M24.7188 21.4922H26.3047V23.1328H24.7188V21.4922Z" fill="#CDAC00"/>
  <path d="M21.4922 21.4922H23.1328V23.1328H21.4922V21.4922Z" fill="#CDAC00"/>
  <path d="M18.3203 21.4922H19.9062V23.1328H18.3203V21.4922Z" fill="#CDAC00"/>
  <path d="M15.0938 21.4922H16.6797V23.1328H15.0938V21.4922Z" fill="#CDAC00"/>
  <path d="M11.8672 21.4922H13.5078V23.1328H11.8672V21.4922Z" fill="#CDAC00"/>
  <path d="M8.69531 21.4922H10.2813V23.1328H8.69531V21.4922Z" fill="#CDAC00"/>
  <path d="M21.4922 24.7188H23.1328V26.3047H21.4922V24.7188Z" fill="#CDAC00"/>
  <path d="M18.3203 24.7188H19.9062V26.3047H18.3203V24.7188Z" fill="#CDAC00"/>
  <path d="M15.0938 24.7188H16.6797V26.3047H15.0938V24.7188Z" fill="#CDAC00"/>
  <path d="M11.8672 24.7188H13.5078V26.3047H11.8672V24.7188Z" fill="#CDAC00"/>
  <path d="M8.69531 24.7188H10.2813V26.3047H8.69531V24.7188Z" fill="#CDAC00"/>
</svg>