<svg xmlns="http://www.w3.org/2000/svg" width="26" height="26" viewBox="0 0 26 26" fill="none">
  <g clip-path="url(#clip0_353_1602)">
    <path d="M26 0H0V26H26V0Z" fill="white" fill-opacity="0.01"/>
    <path d="M5.34 17.7437C3.37956 18.3318 2.16699 19.1443 2.16699 20.0417C2.16699 21.8366 7.01724 23.2917 13.0003 23.2917C18.9834 23.2917 23.8337 21.8366 23.8337 20.0417C23.8337 19.1443 22.6211 18.3318 20.6606 17.7437" stroke="#DB00FF" stroke-width="1.5" stroke-linecap="round" stroke-linejoin="round"/>
    <path fill-rule="evenodd" clip-rule="evenodd" d="M12.9997 18.9583C12.9997 18.9583 20.0413 14.3563 20.0413 9.03594C20.0413 5.24212 16.8887 2.16663 12.9997 2.16663C9.11067 2.16663 5.95801 5.24212 5.95801 9.03594C5.95801 14.3563 12.9997 18.9583 12.9997 18.9583Z" stroke="#DB00FF" stroke-width="1.5" stroke-linejoin="round"/>
    <path fill-rule="evenodd" clip-rule="evenodd" d="M13.0003 11.9167C14.4961 11.9167 15.7087 10.7041 15.7087 9.20833C15.7087 7.71258 14.4961 6.5 13.0003 6.5C11.5046 6.5 10.292 7.71258 10.292 9.20833C10.292 10.7041 11.5046 11.9167 13.0003 11.9167Z" stroke="#DB00FF" stroke-width="1.5" stroke-linejoin="round"/>
  </g>
  <defs>
    <clipPath id="clip0_353_1602">
      <rect width="26" height="26" fill="white"/>
    </clipPath>
  </defs>
</svg>