<svg xmlns="http://www.w3.org/2000/svg" width="26" height="26" viewBox="0 0 26 26" fill="none">
  <path d="M7.13883 3.11689V9.44809C7.13883 9.47333 7.1401 9.49852 7.14264 9.52365C7.1437 9.53442 7.14573 9.54488 7.14726 9.55554C7.14919 9.56946 7.15081 9.58348 7.1536 9.59729C7.15609 9.60973 7.1595 9.62181 7.16259 9.634C7.16554 9.64588 7.16818 9.65787 7.17168 9.6696C7.17539 9.68163 7.17991 9.69326 7.18418 9.70504C7.18834 9.71672 7.19215 9.72845 7.19692 9.73993C7.20144 9.751 7.20687 9.76157 7.2119 9.77238C7.21749 9.78411 7.22267 9.79589 7.22881 9.80747C7.2344 9.81778 7.24069 9.82758 7.24669 9.83769C7.25344 9.84891 7.25984 9.86038 7.26715 9.87135C7.27462 9.88247 7.28294 9.89299 7.29097 9.9037C7.29782 9.91289 7.30417 9.92229 7.31148 9.93112C7.32743 9.95052 7.34419 9.96921 7.36196 9.98698L11.8371 14.4621C10.7523 15.3157 9.38483 15.8255 7.90055 15.8255C4.3842 15.8255 1.52344 12.9647 1.52344 9.4484C1.52344 6.18976 3.98028 3.49455 7.13883 3.11689ZM14.232 8.68668H8.66226V3.11689C11.571 3.46474 13.8842 5.77793 14.232 8.68668ZM12.9143 13.3849L9.73949 10.2101H14.232C14.0898 11.399 13.6197 12.4885 12.9143 13.3849ZM7.90055 17.3489C12.2569 17.3489 15.8011 13.8047 15.8011 9.4484C15.8011 5.09203 12.2569 1.54785 7.90055 1.54785C3.54418 1.54785 0 5.09203 0 9.4484C0 13.8047 3.54418 17.3489 7.90055 17.3489Z" fill="#0085FF"/>
  <path d="M17.5146 4.39709H18.5425C18.9631 4.39709 19.3042 4.05605 19.3042 3.63538C19.3042 3.2147 18.9631 2.87366 18.5425 2.87366H17.5146C17.094 2.87366 16.7529 3.2147 16.7529 3.63538C16.7529 4.05605 17.094 4.39709 17.5146 4.39709Z" fill="#0085FF"/>
  <path d="M21.0176 4.39709H25.1725C25.5932 4.39709 25.9342 4.05605 25.9342 3.63538C25.9342 3.2147 25.5932 2.87366 25.1725 2.87366H21.0176C20.5969 2.87366 20.2559 3.2147 20.2559 3.63538C20.2559 4.05605 20.5969 4.39709 21.0176 4.39709Z" fill="#0085FF"/>
  <path d="M17.5146 8.27222H20.5737C20.9944 8.27222 21.3354 7.93112 21.3354 7.5105C21.3354 7.08978 20.9944 6.74878 20.5737 6.74878H17.5146C17.094 6.74878 16.7529 7.08978 16.7529 7.5105C16.7529 7.93112 17.094 8.27222 17.5146 8.27222Z" fill="#0085FF"/>
  <path d="M25.1725 6.74878H23.0488C22.6282 6.74878 22.2871 7.08978 22.2871 7.5105C22.2871 7.93112 22.6282 8.27222 23.0488 8.27222H25.1725C25.5932 8.27222 25.9342 7.93112 25.9342 7.5105C25.9342 7.08978 25.5932 6.74878 25.1725 6.74878Z" fill="#0085FF"/>
  <path d="M17.5146 12.1478H18.5425C18.9631 12.1478 19.3042 11.8068 19.3042 11.3861C19.3042 10.9654 18.9631 10.6244 18.5425 10.6244H17.5146C17.094 10.6244 16.7529 10.9654 16.7529 11.3861C16.7529 11.8068 17.094 12.1478 17.5146 12.1478Z" fill="#0085FF"/>
  <path d="M25.1725 10.6244H21.0176C20.5969 10.6244 20.2559 10.9654 20.2559 11.3861C20.2559 11.8068 20.5969 12.1478 21.0176 12.1478H25.1725C25.5932 12.1478 25.9342 11.8068 25.9342 11.3861C25.9342 10.9654 25.5932 10.6244 25.1725 10.6244Z" fill="#0085FF"/>
  <path d="M17.5146 16.0229H19.6596C20.0803 16.0229 20.4214 15.682 20.4214 15.2612C20.4214 14.8406 20.0803 14.4995 19.6596 14.4995H17.5146C17.094 14.4995 16.7529 14.8406 16.7529 15.2612C16.7529 15.682 17.094 16.0229 17.5146 16.0229Z" fill="#0085FF"/>
  <path d="M25.1725 14.4995H22.1348C21.7141 14.4995 21.373 14.8406 21.373 15.2612C21.373 15.682 21.7141 16.0229 22.1348 16.0229H25.1725C25.5932 16.0229 25.9342 15.682 25.9342 15.2612C25.9342 14.8406 25.5932 14.4995 25.1725 14.4995Z" fill="#0085FF"/>
  <path d="M24.1053 22.5577C23.8661 22.797 23.5481 22.9287 23.21 22.9287H14.1694V20.3958H23.21C23.5481 20.3958 23.8661 20.5275 24.1054 20.7668C24.3447 21.006 24.4764 21.3241 24.4764 21.6622C24.4764 21.9955 24.3412 22.3219 24.1053 22.5577ZM2.26503 22.5577C2.0261 22.3188 1.89453 22.0007 1.89453 21.6622C1.89453 21.3237 2.0261 21.0057 2.26503 20.7668C2.50431 20.5275 2.82256 20.3958 3.16102 20.3958H5.55738V22.9287H3.16102C2.82251 22.9287 2.50431 22.7969 2.26503 22.5577ZM12.6459 22.9287H7.08082V20.3958H12.6459V22.9287ZM25.1827 19.6896C24.6556 19.1626 23.9551 18.8723 23.21 18.8723H3.16102C2.4156 18.8723 1.71487 19.1626 1.18781 19.6896C0.661155 20.2162 0.371094 20.9168 0.371094 21.6622C0.371094 22.4077 0.661155 23.1083 1.18781 23.6349C1.71482 24.1619 2.4156 24.4522 3.16102 24.4522H23.21C23.9551 24.4522 24.6557 24.1619 25.1826 23.6349C25.7096 23.1079 25.9999 22.4073 25.9999 21.6622C25.9999 20.9171 25.7096 20.2165 25.1827 19.6896Z" fill="#0085FF"/>
</svg>