<svg xmlns="http://www.w3.org/2000/svg" width="26" height="26" viewBox="0 0 26 26" fill="none">
  <path d="M4.31292 9.94501C4.40676 9.94501 4.50218 9.92754 4.59465 9.89073L16.764 5.04178L16.2077 6.33548C16.0415 6.72193 16.2201 7.16997 16.6066 7.33618C16.7046 7.37833 16.8067 7.39833 16.9071 7.39833C17.2023 7.39833 17.4832 7.22568 17.6072 6.93729L18.89 3.95445C18.8909 3.95212 18.8916 3.94978 18.8925 3.94749C18.9013 3.92667 18.9093 3.9056 18.9161 3.88407C18.9198 3.87259 18.9223 3.86096 18.9254 3.84944C18.9287 3.83699 18.9325 3.82471 18.9351 3.81211C18.938 3.79891 18.9397 3.78566 18.9418 3.77245C18.9436 3.76118 18.9458 3.74996 18.9471 3.73853C18.9486 3.72543 18.9491 3.71238 18.9499 3.69928C18.9506 3.68744 18.9517 3.67576 18.9518 3.66393C18.9519 3.65144 18.9512 3.63915 18.9508 3.62676C18.9503 3.61427 18.9502 3.60178 18.9491 3.58923C18.9481 3.5771 18.9461 3.56511 18.9445 3.55313C18.9428 3.54053 18.9415 3.52794 18.9391 3.51535C18.9367 3.50179 18.9331 3.48843 18.9298 3.47508C18.9273 3.46431 18.9252 3.4535 18.9221 3.44278C18.9152 3.41866 18.9071 3.395 18.8978 3.37169V3.37158C18.8885 3.34828 18.8779 3.32548 18.8665 3.30313C18.8612 3.29298 18.8551 3.28348 18.8495 3.27363C18.8428 3.262 18.8364 3.25012 18.829 3.23879C18.8218 3.22767 18.8139 3.21731 18.8061 3.20665C18.7993 3.1972 18.7928 3.18755 18.7855 3.17836C18.7773 3.16816 18.7685 3.15861 18.7598 3.14881C18.7519 3.13997 18.7443 3.13083 18.7361 3.12235C18.7274 3.11341 18.7181 3.10524 18.7089 3.09676C18.6999 3.08828 18.691 3.07954 18.6814 3.07147C18.672 3.0635 18.662 3.05639 18.6522 3.04892C18.6423 3.0413 18.6326 3.03343 18.6222 3.02622C18.6105 3.0182 18.5982 3.01114 18.5861 3.00378C18.577 2.99819 18.5682 2.99225 18.5588 2.98702C18.5367 2.97483 18.5141 2.96366 18.4909 2.95371L15.5082 1.67102C15.1219 1.50487 14.6737 1.68341 14.5075 2.06986C14.3413 2.4563 14.5199 2.90435 14.9063 3.07055L16.1996 3.62671L4.03072 8.47551C3.63996 8.6312 3.44938 9.07427 3.60508 9.46508C3.72395 9.76337 4.01026 9.94501 4.31292 9.94501Z" fill="#FF5C00"/>
  <path d="M1.52344 17.662C1.52344 17.1631 1.92938 16.7572 2.42836 16.7572C2.92734 16.7572 3.33328 17.1631 3.33328 17.662V22.8677H1.52344V17.662ZM8.57137 14.4573C8.57137 14.2151 8.66531 13.9879 8.8367 13.8168C9.00697 13.6463 9.23411 13.5523 9.47629 13.5523C9.71816 13.5523 9.9451 13.6463 10.1162 13.8177C10.2871 13.9883 10.3812 14.2154 10.3812 14.4573V22.8677H8.57137V14.4573ZM15.6188 11.772C15.6188 11.273 16.0247 10.867 16.5237 10.867C17.0227 10.867 17.4286 11.273 17.4286 11.772V22.8677H15.6188V11.772ZM22.6667 8.03036C22.6667 7.53138 23.0727 7.12549 23.5716 7.12549C24.0706 7.12549 24.4766 7.53138 24.4766 8.03036V22.8677H22.6667V8.03036ZM23.5716 5.60205C22.2326 5.60205 21.1433 6.69141 21.1433 8.03036V22.8677H18.9521V11.772C18.9521 10.433 17.8627 9.34356 16.5237 9.34356C15.1847 9.34356 14.0954 10.433 14.0954 11.772V22.8677H11.9046V14.4573C11.9046 13.808 11.6518 13.198 11.1935 12.7405C10.7354 12.2816 10.1256 12.0289 9.47629 12.0289C8.8267 12.0289 8.21666 12.2816 7.75948 12.7396C7.30062 13.1977 7.04793 13.8077 7.04793 14.4573V22.8677H4.85672V17.662C4.85672 16.3231 3.76736 15.2337 2.42836 15.2337C1.08936 15.2337 0 16.3231 0 17.662V23.6294C0 24.0501 0.341047 24.3911 0.761719 24.3911H25.2383C25.659 24.3911 26 24.0501 26 23.6294V8.03036C26 6.69141 24.9106 5.60205 23.5716 5.60205Z" fill="#FF5C00"/>
</svg>