<svg xmlns="http://www.w3.org/2000/svg" width="26" height="26" viewBox="0 0 26 26" fill="none">
<g clip-path="url(#clip0_381_570)">
<path d="M17.745 12.1875H8.255C6.28179 12.1897 4.39001 12.9745 2.99473 14.3697C1.59946 15.765 0.814651 17.6568 0.8125 19.63V24.375C0.8125 24.5905 0.898102 24.7972 1.05048 24.9495C1.20285 25.1019 1.40951 25.1875 1.625 25.1875H24.375C24.5905 25.1875 24.7972 25.1019 24.9495 24.9495C25.1019 24.7972 25.1875 24.5905 25.1875 24.375V19.63C25.1853 17.6568 24.4005 15.765 23.0053 14.3697C21.61 12.9745 19.7182 12.1897 17.745 12.1875ZM23.5625 23.5625H2.4375V19.63C2.43965 18.0878 3.05325 16.6093 4.14378 15.5188C5.23431 14.4283 6.71276 13.8146 8.255 13.8125H17.745C19.2872 13.8146 20.7657 14.4283 21.8562 15.5188C22.9467 16.6093 23.5604 18.0878 23.5625 19.63V23.5625Z" fill="#0057FF"/>
<path d="M13 13.8125C11.7144 13.8125 10.4577 13.4313 9.3888 12.7171C8.31988 12.0028 7.48676 10.9877 6.99479 9.79995C6.50282 8.61223 6.37409 7.30529 6.6249 6.04442C6.8757 4.78354 7.49477 3.62535 8.40381 2.71631C9.31285 1.80727 10.471 1.1882 11.7319 0.937399C12.9928 0.686595 14.2997 0.815316 15.4874 1.30729C16.6752 1.79926 17.6903 2.63238 18.4046 3.7013C19.1188 4.77022 19.5 6.02693 19.5 7.3125C19.5 9.03641 18.8152 10.6897 17.5962 11.9087C16.3772 13.1277 14.7239 13.8125 13 13.8125ZM13 2.4375C12.0358 2.4375 11.0933 2.72342 10.2916 3.25909C9.48991 3.79476 8.86507 4.55613 8.49609 5.44692C8.12711 6.33771 8.03057 7.31791 8.21867 8.26357C8.40678 9.20923 8.87108 10.0779 9.55286 10.7596C10.2346 11.4414 11.1033 11.9057 12.0489 12.0938C12.9946 12.2819 13.9748 12.1854 14.8656 11.8164C15.7564 11.4474 16.5177 10.8226 17.0534 10.0209C17.5891 9.21922 17.875 8.27669 17.875 7.3125C17.875 6.01957 17.3614 4.7796 16.4472 3.86536C15.5329 2.95112 14.2929 2.4375 13 2.4375Z" fill="#0057FF"/>
</g>
<defs>
<clipPath id="clip0_381_570">
<rect width="26" height="26" fill="white"/>
</clipPath>
</defs>
</svg>