<svg xmlns="http://www.w3.org/2000/svg" width="26" height="26" viewBox="0 0 26 26" fill="none">
<g clip-path="url(#clip0_381_531)">
<path d="M5.76836 18.9617H3.70664C2.82305 18.9617 2.00039 19.307 1.38086 19.9265C0.761328 20.546 0.416016 21.3789 0.416016 22.2523C0.416016 24.0703 1.89883 25.5429 3.70664 25.5429H5.76836C6.65195 25.5429 7.47461 25.1976 8.09414 24.5781C8.71367 23.9585 9.05898 23.1257 9.05898 22.2523C9.05898 20.4343 7.58633 18.9617 5.76836 18.9617ZM7.39336 23.8773C6.95664 24.314 6.38789 24.5476 5.76836 24.5476H3.70664C2.43711 24.5476 1.41133 23.5218 1.41133 22.2523C1.41133 21.6429 1.64492 21.064 2.08164 20.6273C2.51836 20.1906 3.08711 19.957 3.70664 19.957H5.76836C7.03789 19.957 8.06367 20.9828 8.06367 22.2523C8.06367 22.8617 7.81992 23.4406 7.39336 23.8773Z" fill="#FF5C00"/>
<path d="M22.2928 18.9617H20.2311C19.3475 18.9617 18.5248 19.307 17.9053 19.9265C17.2857 20.546 16.9404 21.3789 16.9404 22.2523C16.9404 24.0703 18.4232 25.5429 20.2311 25.5429H22.2928C23.1764 25.5429 23.999 25.1976 24.6186 24.5781C25.2381 23.9585 25.5834 23.1257 25.5834 22.2523C25.5834 20.4343 24.1107 18.9617 22.2928 18.9617ZM23.9178 23.8773C23.4811 24.314 22.9123 24.5476 22.2928 24.5476H20.2311C18.9615 24.5476 17.9357 23.5218 17.9357 22.2523C17.9357 21.6429 18.1693 21.064 18.6061 20.6273C19.0428 20.1906 19.6115 19.957 20.2311 19.957H22.2928C23.5623 19.957 24.5881 20.9828 24.5881 22.2523C24.5881 22.8617 24.3443 23.4406 23.9178 23.8773Z" fill="#FF5C00"/>
<path d="M10.8875 4.11328C11.0704 5.07812 11.9133 5.77891 12.8985 5.77891C13.8735 5.77891 14.7266 5.07812 14.9094 4.12344L15.1532 2.87422C15.2344 2.26484 15.0516 1.64531 14.6454 1.18828C14.2391 0.721094 13.6602 0.457031 13.0407 0.457031H12.7563C12.1368 0.457031 11.5579 0.721094 11.1516 1.18828C10.7454 1.65547 10.5625 2.26484 10.654 2.90469L10.8875 4.11328ZM11.9032 1.83828C12.1165 1.59453 12.4313 1.45234 12.7563 1.45234H13.0407C13.3657 1.45234 13.6805 1.59453 13.8938 1.83828C14.1071 2.08203 14.2086 2.40703 14.168 2.70156L13.9344 3.92031C13.843 4.40781 13.4063 4.77344 12.9086 4.77344C12.411 4.77344 11.9743 4.41797 11.8829 3.92031L11.6493 2.73203C11.5883 2.40703 11.6899 2.08203 11.9032 1.83828Z" fill="#FF5C00"/>
<path d="M9.03885 11.4867H16.7474C16.9607 11.4867 17.1537 11.3953 17.2857 11.2328C17.4178 11.0703 17.4685 10.857 17.4279 10.6539L16.9099 8.22653C16.8389 7.90153 16.6053 7.62731 16.2904 7.52575L14.6349 6.93669C14.4623 6.87575 14.2592 6.91638 14.1271 7.03825L12.8982 8.20622L11.6592 7.04841C11.5271 6.91638 11.324 6.87575 11.1514 6.94684L9.49588 7.53591C9.18104 7.64762 8.94744 7.92184 8.87635 8.23669L8.35838 10.6539C8.31776 10.857 8.36854 11.0703 8.50057 11.2328C8.6326 11.3953 8.82557 11.4867 9.03885 11.4867ZM9.83104 8.46013L11.192 7.97263L12.5529 9.24216C12.7459 9.42497 13.0404 9.42497 13.2334 9.24216L14.5943 7.96247L15.9248 8.4195L16.3615 10.4711H9.41463L9.83104 8.46013Z" fill="#FF5C00"/>
<path d="M20.8098 17.6415C20.8098 17.9157 21.0332 18.1391 21.3074 18.1391C21.5816 18.1391 21.8051 17.9157 21.8051 17.6415V14.8586C21.8051 14.5844 21.5816 14.361 21.3074 14.361H13.3855V13.1219C13.3855 12.8477 13.1621 12.6243 12.8879 12.6243C12.6137 12.6243 12.3902 12.8477 12.3902 13.1219V14.361H4.46836C4.19414 14.361 3.9707 14.5844 3.9707 14.8586V17.6415C3.9707 17.9157 4.19414 18.1391 4.46836 18.1391C4.74258 18.1391 4.96602 17.9157 4.96602 17.6415V15.3563H20.8098V17.6415Z" fill="#FF5C00"/>
</g>
<defs>
<clipPath id="clip0_381_531">
<rect width="26" height="26" fill="white"/>
</clipPath>
</defs>
</svg>