<svg xmlns="http://www.w3.org/2000/svg" width="26" height="26" viewBox="0 0 26 26" fill="none">
<g clip-path="url(#clip0_381_538)">
<path d="M13 8.53125C10.3188 8.53125 8.125 10.725 8.125 13.4062C8.125 16.0875 10.3188 18.2812 13 18.2812C15.6813 18.2812 17.875 16.0875 17.875 13.4062C17.875 10.725 15.6813 8.53125 13 8.53125ZM13 16.6562C11.2125 16.6562 9.75 15.1937 9.75 13.4062C9.75 11.6187 11.2125 10.1562 13 10.1562C14.7875 10.1562 16.25 11.6187 16.25 13.4062C16.25 15.1937 14.7875 16.6562 13 16.6562Z" fill="#CDAC00"/>
<path d="M12.9998 20.4751C9.97324 20.4751 7.06855 21.7345 4.99668 23.9485L4.44824 24.5376L5.62637 25.6548L6.1748 25.0657C7.9623 23.1563 10.3795 22.1001 12.9998 22.1001C15.6201 22.1001 18.0373 23.1563 19.8248 25.0657L20.3732 25.6548L21.5514 24.5376L21.0029 23.9485C18.9311 21.7548 16.0264 20.4751 12.9998 20.4751Z" fill="#CDAC00"/>
<path d="M19.7031 9.72974V11.3547C21.6125 11.3547 23.3797 12.1266 24.7 13.5282L25.8781 12.411C24.2938 10.7047 22.0391 9.72974 19.7031 9.72974Z" fill="#CDAC00"/>
<path d="M23.5826 4.06255C23.5826 1.92974 21.8357 0.182861 19.7029 0.182861C17.5701 0.182861 15.8232 1.92974 15.8232 4.06255C15.8232 6.19536 17.5701 7.94224 19.7029 7.94224C21.8357 7.94224 23.5826 6.19536 23.5826 4.06255ZM17.4482 4.06255C17.4482 2.82349 18.4639 1.80786 19.7029 1.80786C20.942 1.80786 21.9576 2.82349 21.9576 4.06255C21.9576 5.30161 20.942 6.31724 19.7029 6.31724C18.4639 6.31724 17.4482 5.30161 17.4482 4.06255Z" fill="#CDAC00"/>
<path d="M6.29707 9.72974C3.96113 9.72974 1.70645 10.7047 0.12207 12.411L1.3002 13.5282C2.6002 12.1266 4.3877 11.3547 6.29707 11.3547V9.72974Z" fill="#CDAC00"/>
<path d="M10.1764 4.06255C10.1764 1.92974 8.42949 0.182861 6.29668 0.182861C4.16387 0.182861 2.41699 1.92974 2.41699 4.06255C2.41699 6.19536 4.16387 7.94224 6.29668 7.94224C8.42949 7.94224 10.1764 6.19536 10.1764 4.06255ZM6.29668 6.31724C5.05762 6.31724 4.04199 5.30161 4.04199 4.06255C4.04199 2.82349 5.05762 1.80786 6.29668 1.80786C7.53574 1.80786 8.55137 2.82349 8.55137 4.06255C8.55137 5.30161 7.53574 6.31724 6.29668 6.31724Z" fill="#CDAC00"/>
</g>
<defs>
<clipPath id="clip0_381_538">
<rect width="26" height="26" fill="white"/>
</clipPath>
</defs>
</svg>