<svg xmlns="http://www.w3.org/2000/svg" width="28" height="28" viewBox="0 0 28 28" fill="none">
<path d="M22.4308 15.7085C21.7942 14.4842 20.8333 13.4584 19.6532 12.7432C18.4731 12.0279 17.1192 11.6508 15.7393 11.6528H14.6455C16.0254 11.6508 17.3794 12.0279 18.5595 12.7432C19.7396 13.4584 20.7004 14.4842 21.3371 15.7085L21.3786 15.7883H22.4724L22.4308 15.7085Z" fill="#DB00FF"/>
<path d="M14.4375 1.3125C14.2548 1.31269 14.0722 1.32292 13.8906 1.34312C15.1051 1.47744 16.2274 2.05504 17.0426 2.96532C17.8577 3.87559 18.3085 5.05457 18.3085 6.27648C18.3085 7.4984 17.8577 8.67738 17.0426 9.58765C16.2274 10.4979 15.1051 11.0755 13.8906 11.2098H13.93H14.9483C16.2044 11.0677 17.359 10.4517 18.1766 9.48744C18.9942 8.52322 19.4131 7.28343 19.3479 6.02094C19.2828 4.75844 18.7384 3.56836 17.826 2.69342C16.9135 1.81848 15.7016 1.3246 14.4375 1.3125Z" fill="#DB00FF"/>
<path d="M5.44462 15.7336H4.35087C4.14905 15.7336 3.94972 15.7782 3.7672 15.8644C3.58468 15.9505 3.42349 16.0759 3.29519 16.2317C3.1669 16.3875 3.07469 16.5698 3.02518 16.7654C2.97567 16.9611 2.97009 17.1653 3.00884 17.3633L4.49634 24.9485C4.5578 25.2594 4.72512 25.5394 4.96981 25.7408C5.2145 25.9422 5.52144 26.0526 5.83837 26.0532H22.1626C22.4796 26.0528 22.7866 25.9425 23.0313 25.7411C23.2761 25.5396 23.4433 25.2595 23.5046 24.9485L24.9888 17.3644C25.0276 17.1664 25.022 16.9622 24.9725 16.7665C24.923 16.5709 24.8308 16.3886 24.7025 16.2328C24.5742 16.077 24.413 15.9516 24.2305 15.8654C24.0479 15.7793 23.8486 15.7347 23.6468 15.7347H22.5531C21.9702 14.52 21.0922 13.4707 19.9993 12.6827C18.9064 11.8948 17.6335 11.3933 16.2968 11.2241C17.4242 10.7009 18.3393 9.80858 18.8905 8.69464C19.4418 7.5807 19.5963 6.31194 19.3284 5.09827C19.0605 3.88459 18.3863 2.79873 17.4174 2.02033C16.4485 1.24193 15.2428 0.817627 13.9999 0.817627C12.757 0.817627 11.5514 1.24193 10.5825 2.02033C9.61351 2.79873 8.93933 3.88459 8.67146 5.09827C8.40358 6.31194 8.55806 7.5807 9.10933 8.69464C9.6606 9.80858 10.5756 10.7009 11.7031 11.2241C10.3661 11.3927 9.09271 11.8939 7.9994 12.6817C6.90609 13.4694 6.02772 14.5188 5.44462 15.7336ZM23.6457 16.2805C23.7668 16.2805 23.8864 16.3073 23.9958 16.359C24.1053 16.4107 24.202 16.486 24.279 16.5794C24.3559 16.6729 24.4112 16.7823 24.4409 16.8996C24.4706 17.017 24.474 17.1395 24.4507 17.2583L22.9687 24.8435C22.932 25.0301 22.8316 25.1981 22.6848 25.319C22.538 25.4399 22.3538 25.5061 22.1637 25.5063H5.83727C5.64692 25.5063 5.46247 25.4403 5.31544 25.3194C5.16841 25.1985 5.06793 25.0303 5.03118 24.8435L3.54915 17.2583C3.5259 17.1395 3.52925 17.017 3.55894 16.8996C3.58863 16.7823 3.64394 16.6729 3.72089 16.5794C3.79784 16.486 3.89453 16.4107 4.00402 16.359C4.11351 16.3073 4.23308 16.2805 4.35415 16.2805H23.6457ZM9.09009 6.27708C9.08923 5.32741 9.3638 4.39787 9.88054 3.60109C10.3973 2.8043 11.134 2.17448 12.0014 1.78793C12.8689 1.40138 13.8298 1.27469 14.7678 1.42321C15.7058 1.57173 16.5806 1.98909 17.2861 2.62472C17.9917 3.26035 18.4978 4.08696 18.7431 5.0044C18.9885 5.92184 18.9624 6.89074 18.6682 7.79369C18.374 8.69664 17.8243 9.49489 17.0856 10.0917C16.3469 10.6886 15.4509 11.0583 14.5063 11.1563H13.4935C12.2873 11.0285 11.1707 10.4599 10.3581 9.55938C9.54539 8.6589 9.09385 7.49004 9.09009 6.27708ZM12.6995 11.7075H15.3015C16.6706 11.7094 18.0132 12.0854 19.1841 12.795C20.355 13.5046 21.3097 14.5208 21.9449 15.7336H6.05493C6.68956 14.52 7.64398 13.5029 8.81492 12.7925C9.98587 12.0821 11.3288 11.7054 12.6984 11.7032L12.6995 11.7075Z" fill="#DB00FF"/>
<path d="M24.976 26.6328H3.02441C2.95189 26.6328 2.88234 26.6616 2.83106 26.7129C2.77979 26.7642 2.75098 26.8337 2.75098 26.9062C2.75098 26.9788 2.77979 27.0483 2.83106 27.0996C2.88234 27.1509 2.95189 27.1797 3.02441 27.1797H24.976C25.0485 27.1797 25.118 27.1509 25.1693 27.0996C25.2206 27.0483 25.2494 26.9788 25.2494 26.9062C25.2494 26.8337 25.2206 26.7642 25.1693 26.7129C25.118 26.6616 25.0485 26.6328 24.976 26.6328Z" fill="#DB00FF"/>
</svg>