<svg xmlns="http://www.w3.org/2000/svg" width="28" height="28" viewBox="0 0 28 28" fill="none">
<path d="M18.0878 16.1335C17.9086 16.0831 17.707 16.1615 17.6118 16.3295L15.0694 20.7311L12.527 16.3295C12.4318 16.1615 12.2358 16.0831 12.051 16.1335C7.21255 17.4719 3.80775 21.9183 3.76855 26.9471C3.76855 27.0591 3.81335 27.1655 3.89175 27.2439C3.97015 27.3223 4.07655 27.3671 4.18855 27.3671H25.9446C26.0566 27.3671 26.163 27.3223 26.2414 27.2439C26.3198 27.1655 26.3646 27.0591 26.3646 26.9471C26.331 21.9183 22.9262 17.4719 18.0878 16.1335ZM22.131 26.5327V24.4271C22.131 24.1975 21.9406 24.0071 21.711 24.0071C21.4814 24.0071 21.291 24.1975 21.291 24.4271V26.5327H8.84775V24.4271C8.84775 24.1975 8.65735 24.0071 8.42775 24.0071C8.19815 24.0071 8.00775 24.1975 8.00775 24.4271V26.5327H4.61975C4.82695 22.1591 7.78376 18.3343 11.967 17.0351L14.7054 21.7839C14.7782 21.9127 14.9182 21.9967 15.0694 21.9967C15.2206 21.9967 15.3606 21.9183 15.4334 21.7839L18.1718 17.0351C22.3494 18.3287 25.3062 22.1591 25.5134 26.5271H22.131V26.5327Z" fill="#0085FF"/>
<path d="M7.88457 9.48632L9.84457 9.85592C9.95097 10.2143 10.091 10.5559 10.2702 10.8863L9.14457 12.5383C9.03257 12.7063 9.04937 12.9303 9.19497 13.0703L10.2926 14.1679C10.4382 14.3079 10.6622 14.3303 10.8246 14.2183L12.4766 13.0927C12.807 13.2719 13.1486 13.4175 13.507 13.5183L13.8766 15.4839C13.9158 15.6799 14.0894 15.8255 14.291 15.8255H15.8422C16.0438 15.8255 16.2174 15.6799 16.2566 15.4839L16.6262 13.5183C16.9846 13.4119 17.3262 13.2719 17.6566 13.0927L19.3086 14.2183C19.4766 14.3303 19.7006 14.3135 19.8406 14.1679L20.9382 13.0703C21.0782 12.9303 21.1006 12.7063 20.9886 12.5383L19.863 10.8863C20.0422 10.5559 20.1878 10.2143 20.2886 9.85592L22.2486 9.48632C22.4446 9.44712 22.5902 9.27352 22.5902 9.07192V7.52072C22.5902 7.31912 22.4446 7.14552 22.2486 7.10632L20.2886 6.73672C20.1822 6.37832 20.0422 6.03672 19.863 5.70632L20.9886 4.05992C21.1006 3.89192 21.0838 3.66792 20.9382 3.52792L19.8406 2.43032C19.695 2.28472 19.471 2.26792 19.303 2.37992L17.6566 3.51112C17.3318 3.33192 16.9846 3.19192 16.6262 3.08552L16.2566 1.11992C16.2174 0.92392 16.0438 0.77832 15.8422 0.77832H14.291C14.0894 0.77832 13.9158 0.92392 13.8766 1.11992L13.507 3.08552C13.1486 3.19192 12.8014 3.33192 12.4766 3.51112L10.8302 2.37992C10.6622 2.26792 10.4382 2.28472 10.2926 2.43032L9.19497 3.52792C9.05497 3.66792 9.03257 3.89192 9.14457 4.05992L10.2702 5.70632C10.091 6.03672 9.94537 6.37832 9.84457 6.73672L7.88457 7.10632C7.68857 7.14552 7.54297 7.31912 7.54297 7.52072V9.07192C7.54297 9.27352 7.68857 9.44712 7.88457 9.48632ZM8.38297 7.86792L10.259 7.51512C10.4214 7.48712 10.5502 7.35832 10.5894 7.20152C10.6958 6.74792 10.875 6.31672 11.1214 5.91352C11.211 5.77352 11.2054 5.59432 11.1102 5.45432L10.035 3.87512L10.6398 3.27032L12.219 4.35112C12.359 4.44632 12.5326 4.44632 12.6782 4.36232C13.0758 4.11592 13.5126 3.93672 13.9718 3.83032C14.1342 3.79112 14.2574 3.66232 14.2854 3.49992L14.6382 1.61832H15.495L15.8478 3.49992C15.8758 3.66232 16.0046 3.79112 16.1614 3.83032C16.6206 3.94232 17.0574 4.12152 17.455 4.36232C17.595 4.45192 17.7742 4.44632 17.9142 4.35112L19.4934 3.27032L20.0982 3.87512L19.023 5.45432C18.9278 5.58872 18.9278 5.76792 19.0118 5.91352C19.2582 6.31672 19.4374 6.74792 19.5438 7.20152C19.583 7.36392 19.7118 7.48712 19.8742 7.51512L21.7502 7.86792V8.72472L19.8742 9.07752C19.7118 9.10552 19.583 9.23432 19.5438 9.39112C19.4374 9.84472 19.2582 10.2815 19.0118 10.6791C18.9222 10.8191 18.9278 10.9983 19.023 11.1383L20.1038 12.7231L19.499 13.3279L17.9142 12.2471C17.7798 12.1519 17.6006 12.1519 17.4606 12.2359C17.0574 12.4823 16.6262 12.6615 16.1726 12.7679C16.0102 12.8071 15.887 12.9359 15.859 13.0983L15.5062 14.9799H14.6494L14.2966 13.0983C14.2686 12.9359 14.1398 12.8071 13.983 12.7679C13.5294 12.6615 13.0982 12.4823 12.695 12.2359C12.555 12.1519 12.3758 12.1519 12.2414 12.2471L10.6566 13.3279L10.0518 12.7231L11.1326 11.1383C11.2278 11.0039 11.2278 10.8247 11.1438 10.6791C10.8974 10.2815 10.7182 9.84472 10.6118 9.39112C10.5726 9.22872 10.4438 9.10552 10.2814 9.07752L8.40537 8.72472V7.86792H8.38297Z" fill="#0085FF"/>
<path d="M15.0689 11.0431C16.5865 11.0431 17.8185 9.81115 17.8185 8.29355C17.8185 6.77595 16.5865 5.54395 15.0689 5.54395C13.5513 5.54395 12.3193 6.78155 12.3193 8.29915C12.3193 9.81675 13.5569 11.0431 15.0689 11.0431ZM15.0689 6.38955C16.1217 6.38955 16.9785 7.24635 16.9785 8.29915C16.9785 9.35195 16.1217 10.2087 15.0689 10.2087C14.0161 10.2087 13.1593 9.35195 13.1593 8.29915C13.1593 7.24635 14.0161 6.38955 15.0689 6.38955Z" fill="#0085FF"/>
</svg>